<svg width="42" height="39" viewBox="0 0 42 39" fill="none" xmlns="http://www.w3.org/2000/svg">
<path fill-rule="evenodd" clip-rule="evenodd" d="M20.827 37.0662C26.7787 37.0662 34.7523 35.4372 38.4937 32.7656C42.7169 29.75 40.9002 25.4061 40.9002 20.5775C40.9002 11.4711 26.5676 1.26358 20.827 1.26358C15.0863 1.26358 0.753753 11.4711 0.753753 20.5775C0.753753 25.4061 -1.77992 29.75 2.44327 32.7656C6.18472 35.4372 14.8752 37.0662 20.827 37.0662Z" fill="#219EBC" fill-opacity="0.6"/>
<path d="M12.5826 28.4634C15.5521 28.4634 17.9593 26.0561 17.9593 23.0866C17.9593 20.1172 15.5521 17.7099 12.5826 17.7099C9.61306 17.7099 7.20581 20.1172 7.20581 23.0866C7.20581 26.0561 9.61306 28.4634 12.5826 28.4634Z" fill="white"/>
<path d="M28.3543 28.4634C31.3238 28.4634 33.731 26.0561 33.731 23.0866C33.731 20.1172 31.3238 17.7099 28.3543 17.7099C25.3848 17.7099 22.9775 20.1172 22.9775 23.0866C22.9775 26.0561 25.3848 28.4634 28.3543 28.4634Z" fill="white"/>
<path fill-rule="evenodd" clip-rule="evenodd" d="M15.8876 3.66296L14.6531 1.55456L17.0547 1.59542L18.4096 0.618288L20.3718 1.23339L22.4307 0.5L24.0911 1.06922L26.6432 1.71586L27.5078 0.769554L26.8999 3.1045L24.5549 3.8429L20.2585 4.30531L15.8876 3.66296Z" fill="#219EBC" fill-opacity="0.6"/>
<path d="M12.5825 26.3127C14.3642 26.3127 15.8085 24.8683 15.8085 23.0866C15.8085 21.3049 14.3642 19.8606 12.5825 19.8606C10.8008 19.8606 9.35645 21.3049 9.35645 23.0866C9.35645 24.8683 10.8008 26.3127 12.5825 26.3127Z" fill="#023047"/>
<path fill-rule="evenodd" clip-rule="evenodd" d="M8.63965 34.9155H32.2973L29.4297 38.5C29.4297 38.5 24.9491 37.0662 20.4685 37.0662C15.9879 37.0662 11.5072 38.5 11.5072 38.5L8.63965 34.9155Z" fill="#ED9111"/>
<path d="M28.3545 26.3127C30.1362 26.3127 31.5805 24.8683 31.5805 23.0866C31.5805 21.3049 30.1362 19.8606 28.3545 19.8606C26.5728 19.8606 25.1284 21.3049 25.1284 23.0866C25.1284 24.8683 26.5728 26.3127 28.3545 26.3127Z" fill="#023047"/>
<path fill-rule="evenodd" clip-rule="evenodd" d="M6.54758 31.2176C6.17252 30.0924 6.76038 29.5251 7.90553 29.851C7.90553 29.851 8.49297 30.447 12.3206 30.2556C16.1482 30.0642 20.2065 28.4634 20.2065 28.4634C20.2065 28.4634 24.751 30.0886 28.0924 30.2556C31.4338 30.4227 32.4867 29.8009 32.4867 29.8009C33.6232 29.4582 34.2404 30.0925 33.8654 31.2176L33.1107 33.4817L34.203 35.3932C35.1834 37.109 34.4787 37.9241 32.608 37.2764C32.608 37.2764 27.3755 34.9155 20.2065 34.9155C13.0375 34.9155 7.80496 37.2764 7.80496 37.2764C5.9436 37.9522 5.23346 37.1021 6.20998 35.3932L7.30227 33.4817L6.54758 31.2176Z" fill="#FFAF40" stroke="#ED9111" stroke-width="2.76907" stroke-linecap="round"/>
<path d="M10.0733 14.1254C8.0936 14.1254 6.48877 15.7302 6.48877 17.7099" stroke="#219EBC" stroke-opacity="0.6" stroke-width="2.76907" stroke-linecap="round"/>
<path d="M30.8635 14.1254C32.8432 14.1254 34.448 15.7302 34.448 17.7099" stroke="#219EBC" stroke-opacity="0.6" stroke-width="2.76907" stroke-linecap="round"/>
</svg>
