<svg width="31" height="31" viewBox="0 0 31 31" fill="none" xmlns="http://www.w3.org/2000/svg">
<path d="M2.90625 3.60193V27.3969C2.90641 27.4485 2.92181 27.4989 2.95051 27.5418C2.97922 27.5847 3.01995 27.6182 3.06761 27.6381C3.11526 27.6579 3.16772 27.6632 3.2184 27.6534C3.26907 27.6436 3.31572 27.619 3.35248 27.5827L15.7422 15.5L3.35248 3.41605C3.31572 3.37981 3.26907 3.35522 3.2184 3.34538C3.16772 3.33554 3.11526 3.34088 3.06761 3.36073C3.01995 3.38058 2.97922 3.41406 2.95051 3.45697C2.92181 3.49988 2.90641 3.55031 2.90625 3.60193ZM20.9371 10.5352L5.40199 1.97625L5.3923 1.9708C5.12469 1.82549 4.87039 2.18756 5.08957 2.39826L17.2674 14.0426L20.9371 10.5352ZM5.09078 28.6017C4.87039 28.8124 5.12469 29.1745 5.39352 29.0292L5.4032 29.0237L20.9371 20.4648L17.2674 16.9561L5.09078 28.6017ZM27.2086 13.9863L22.8704 11.5971L18.7913 15.5L22.8704 19.401L27.2086 17.0137C28.3886 16.3616 28.3886 14.6384 27.2086 13.9863Z" fill="white"/>
</svg>
