<svg width="47" height="37" viewBox="0 0 47 37" fill="none" xmlns="http://www.w3.org/2000/svg">
<g clip-path="url(#clip0_163_475)">
<path d="M8.54714 36.8161V34.3672C8.54714 33.4283 7.98287 32.8162 7.01569 32.8162C6.5322 32.8162 6.00831 32.9794 5.6456 33.5101C5.36365 33.0611 4.96074 32.8162 4.35627 32.8162C3.95317 32.8162 3.55044 32.9385 3.22793 33.3876V32.8978H2.38171V36.8161H3.22793V34.6528C3.22793 33.9591 3.59064 33.6324 4.15491 33.6324C4.7188 33.6324 5.00112 33.9998 5.00112 34.6528V36.8161H5.84733V34.6528C5.84733 33.9591 6.25006 33.6324 6.77394 33.6324C7.33821 33.6324 7.62016 33.9998 7.62016 34.6528V36.8161H8.54714ZM21.079 32.8978H19.7091V31.7142H18.8629V32.8978H18.0972V33.6732H18.8627V35.4692C18.8627 36.3673 19.2254 36.8977 20.1926 36.8977C20.5553 36.8977 20.958 36.7754 21.2403 36.6121L20.9984 35.8774C20.7566 36.0406 20.4747 36.0815 20.2732 36.0815C19.8702 36.0815 19.7091 35.8366 19.7091 35.4283V33.6732H21.079V32.8978ZM28.2518 32.816C27.7683 32.816 27.446 33.0611 27.2444 33.3876V32.8978H26.3982V36.8161H27.2444V34.6121C27.2444 33.9591 27.5264 33.5917 28.0502 33.5917C28.2114 33.5917 28.413 33.6326 28.5741 33.6733L28.8159 32.8571C28.6547 32.8162 28.413 32.8162 28.2518 32.8162V32.816ZM17.4122 33.2243C17.0091 32.9385 16.445 32.8162 15.8405 32.8162C14.8735 32.8162 14.2289 33.3059 14.2289 34.0815C14.2289 34.7346 14.7124 35.1018 15.5586 35.2244L15.9615 35.2653C16.4048 35.3467 16.6466 35.4692 16.6466 35.6734C16.6466 35.959 16.3242 36.1631 15.76 36.1631C15.1959 36.1631 14.7526 35.959 14.4704 35.755L14.0675 36.408C14.5108 36.7345 15.1153 36.8977 15.7196 36.8977C16.8479 36.8977 17.4928 36.3673 17.4928 35.6325C17.4928 34.9386 16.9689 34.5712 16.1629 34.4489L15.76 34.4079C15.3972 34.367 15.1153 34.2856 15.1153 34.0407C15.1153 33.755 15.3972 33.5917 15.8405 33.5917C16.3242 33.5917 16.8077 33.7957 17.0495 33.9182L17.4122 33.2243ZM39.8974 32.8162C39.4137 32.8162 39.0914 33.0611 38.8898 33.3876V32.8978H38.0436V36.8161H38.8898V34.6121C38.8898 33.9591 39.172 33.5917 39.6957 33.5917C39.857 33.5917 40.0586 33.6326 40.2197 33.6733L40.4615 32.8571C40.3003 32.8162 40.0586 32.8162 39.8974 32.8162ZM29.098 34.857C29.098 36.0406 29.9038 36.8977 31.1531 36.8977C31.7172 36.8977 32.1201 36.7754 32.5231 36.4489L32.1201 35.755C31.7978 35.9999 31.4755 36.1222 31.1128 36.1222C30.4277 36.1222 29.9442 35.6325 29.9442 34.857C29.9442 34.1224 30.4277 33.6324 31.1128 33.5917C31.4755 33.5917 31.7978 33.7141 32.1201 33.9591L32.5231 33.2652C32.1201 32.9385 31.7172 32.8162 31.1531 32.8162C29.9038 32.8162 29.098 33.6733 29.098 34.857ZM36.9155 34.857V32.8978H36.0693V33.3876C35.7871 33.0204 35.3842 32.8162 34.8603 32.8162C33.7724 32.8162 32.9261 33.6733 32.9261 34.857C32.9261 36.0406 33.7724 36.8977 34.8603 36.8977C35.4244 36.8977 35.8275 36.6938 36.0693 36.3264V36.8161H36.9155V34.857ZM33.8126 34.857C33.8126 34.1631 34.2559 33.5917 34.9811 33.5917C35.6662 33.5917 36.1498 34.1224 36.1498 34.857C36.1498 35.5509 35.6662 36.1222 34.9811 36.1222C34.2559 36.0813 33.8126 35.5509 33.8126 34.857ZM23.6984 32.8162C22.57 32.8162 21.764 33.6324 21.764 34.857C21.764 36.0815 22.5699 36.8977 23.7386 36.8977C24.3027 36.8977 24.8669 36.7345 25.3102 36.3673L24.9071 35.755C24.5848 35.9999 24.1819 36.1631 23.779 36.1631C23.2551 36.1631 22.7312 35.9183 22.6102 35.2242H25.4714V34.8979C25.5118 33.6324 24.7865 32.8162 23.6984 32.8162ZM23.6984 33.5508C24.2221 33.5508 24.585 33.8775 24.6654 34.4898H22.6506C22.7312 33.9591 23.0939 33.5508 23.6984 33.5508ZM44.6925 34.857V31.3468H43.8463V33.3876C43.5642 33.0204 43.1613 32.8162 42.6374 32.8162C41.5494 32.8162 40.7032 33.6733 40.7032 34.857C40.7032 36.0406 41.5494 36.8977 42.6374 36.8977C43.2017 36.8977 43.6046 36.6938 43.8463 36.3264V36.8161H44.6925V34.857ZM41.5898 34.857C41.5898 34.1631 42.0329 33.5917 42.7584 33.5917C43.4434 33.5917 43.9269 34.1224 43.9269 34.857C43.9269 35.5509 43.4434 36.1222 42.7584 36.1222C42.0329 36.0813 41.5898 35.5509 41.5898 34.857ZM13.3019 34.857V32.8978H12.4557V33.3876C12.1736 33.0204 11.7706 32.8162 11.2468 32.8162C10.1588 32.8162 9.31258 33.6733 9.31258 34.857C9.31258 36.0406 10.1588 36.8977 11.2468 36.8977C11.811 36.8977 12.2139 36.6938 12.4557 36.3264V36.8161H13.3019V34.857ZM10.1588 34.857C10.1588 34.1631 10.6021 33.5917 11.3273 33.5917C12.0124 33.5917 12.4961 34.1224 12.4961 34.857C12.4961 35.5509 12.0124 36.1222 11.3273 36.1222C10.6021 36.0813 10.1588 35.5509 10.1588 34.857Z" fill="white"/>
<path d="M17.1301 3.14282H29.8233V26.2448H17.1301V3.14282Z" fill="#FF5F00"/>
<path d="M17.9359 14.6938C17.9359 10 20.1118 5.8367 23.4562 3.14277C20.9984 1.18363 17.8957 0 14.5108 0C6.4916 0 0.00402832 6.57131 0.00402832 14.6938C0.00402832 22.8162 6.4916 29.3877 14.5106 29.3877C17.8955 29.3877 20.9982 28.204 23.4562 26.2447C20.1118 23.5917 17.9359 19.3876 17.9359 14.6938Z" fill="#EB001B"/>
<path d="M46.949 14.6938C46.949 22.8162 40.4615 29.3877 32.4425 29.3877C29.0576 29.3877 25.9549 28.204 23.4968 26.2447C26.8817 23.551 29.0174 19.3876 29.0174 14.6938C29.0174 10 26.8413 5.8367 23.4968 3.14277C25.9547 1.18363 29.0576 0 32.4425 0C40.4615 0 46.949 6.61222 46.949 14.6938Z" fill="#F79E1B"/>
</g>
<defs>
<clipPath id="clip0_163_475">
<rect width="47" height="37" fill="white"/>
</clipPath>
</defs>
</svg>
