<svg width="31" height="31" viewBox="0 0 31 31" fill="none" xmlns="http://www.w3.org/2000/svg">
<path d="M24.1671 25.1875C23.095 26.7892 21.9584 28.3521 20.2275 28.3779C18.4967 28.4167 17.9413 27.3575 15.978 27.3575C14.0017 27.3575 13.3946 28.3521 11.7542 28.4167C10.0621 28.4813 8.78338 26.7117 7.69838 25.1488C5.48963 21.9583 3.79755 16.0813 6.07088 12.1288C7.19463 10.1654 9.20963 8.92543 11.3925 8.88668C13.0459 8.86084 14.6217 10.0104 15.6421 10.0104C16.6496 10.0104 18.5613 8.62834 20.5634 8.83501C21.403 8.87376 23.7538 9.17084 25.265 11.3925C25.1488 11.47 22.4621 13.0458 22.488 16.3138C22.5267 20.2146 25.9109 21.5192 25.9496 21.5321C25.9109 21.6225 25.4071 23.3921 24.1671 25.1875ZM16.7917 4.52084C17.7346 3.44876 19.2975 2.63501 20.5892 2.58334C20.7571 4.09459 20.15 5.61876 19.2459 6.70376C18.3546 7.80168 16.8821 8.65418 15.4355 8.53793C15.2417 7.05251 15.965 5.50251 16.7917 4.52084Z" fill="white"/>
</svg>
