<svg width="26" height="26" viewBox="0 0 26 26" fill="none" xmlns="http://www.w3.org/2000/svg">
<path d="M18.1892 24.9166C17.7342 24.7324 17.4092 24.3208 17.3333 23.8333C17.2792 23.5516 17.3333 23.3566 17.7667 22.5766C19.3917 19.6516 20.2258 16.3474 20.1825 12.9999C20.2258 9.74994 19.435 6.57578 17.875 3.72661C17.6475 3.24994 17.4417 2.79494 17.2683 2.30744C17.3333 1.89578 17.5392 1.51661 17.875 1.28911C18.3625 1.02911 18.9583 1.08328 19.4025 1.38661C19.7058 1.77661 19.9658 2.16661 20.1825 2.62161C21.3481 4.85425 22.1421 7.26191 22.5333 9.74994C22.7825 11.7108 22.815 13.7041 22.6308 15.6758C22.295 18.2108 21.5475 20.6591 20.3992 22.9449C19.7058 24.3316 19.3158 24.9166 18.9042 24.9166H18.1892ZM13.4658 22.5224C12.8483 22.3491 12.4583 21.7208 12.5883 21.0924C12.5883 20.9624 12.9242 20.3666 13.2275 19.7599C14.5058 17.3008 15.0583 14.5274 14.8092 11.7649C14.6575 9.78244 14.0833 7.85411 13.1408 6.10994C12.4583 4.74494 12.415 4.52828 12.8158 3.94328C13.2925 3.41244 14.0833 3.33661 14.6683 3.79161C15.4483 4.93994 16.0658 6.19661 16.5208 7.51828C17.9075 11.6241 17.6908 16.0983 15.9142 20.0416C15.0042 22.0891 14.365 22.7499 13.4658 22.4683V22.5224ZM8.59084 20.1066C8.39795 20.02 8.22683 19.8915 8.09001 19.7303C7.95318 19.5691 7.8541 19.3793 7.80001 19.1749C7.80001 18.9583 7.80001 18.6766 8.28751 17.8099C9.08167 16.3701 9.49818 14.7526 9.49818 13.1083C9.49818 11.464 9.08167 9.84643 8.28751 8.40661C7.58334 7.04161 7.58334 6.75995 8.15751 6.23995C8.36334 6.00161 8.66668 5.88244 8.99168 5.92578C9.68501 5.92578 10.075 6.26161 10.66 7.48578C11.5811 9.17699 12.0582 11.0742 12.0467 12.9999C12.09 14.9608 11.6133 16.9108 10.6708 18.6333C10.0858 19.7708 9.79334 20.0416 9.20834 20.1391C9.00251 20.1608 8.78584 20.1391 8.59084 20.0416V20.1066ZM4.03001 17.7991C3.67251 17.6258 3.39084 17.3333 3.25001 16.9541C3.14168 16.5749 3.25001 16.2499 3.68334 15.5566C4.22501 14.8199 4.48501 13.9099 4.43084 12.9999C4.50668 12.0791 4.25751 11.1691 3.72668 10.4108C3.54687 10.1377 3.38754 9.8516 3.25001 9.55494C3.13084 8.87244 3.58584 8.22245 4.33334 8.09244C4.91834 7.98411 5.33001 8.23328 5.87168 9.05661C6.64024 10.2262 7.04976 11.5951 7.04976 12.9945C7.04976 14.394 6.64024 15.7629 5.87168 16.9324C5.31918 17.7666 4.69084 18.0158 4.04084 17.7991H4.03001Z" fill="white"/>
</svg>
