<svg width="120" height="120" viewBox="0 0 120 120" fill="none" xmlns="http://www.w3.org/2000/svg">
<path d="M108.75 26.25H11.25C9.26088 26.25 7.35322 27.0402 5.9467 28.4467C4.54018 29.8532 3.75 31.7609 3.75 33.75V86.25C3.75 88.2391 4.54018 90.1468 5.9467 91.5533C7.35322 92.9598 9.26088 93.75 11.25 93.75H108.75C110.739 93.75 112.647 92.9598 114.053 91.5533C115.46 90.1468 116.25 88.2391 116.25 86.25V33.75C116.25 31.7609 115.46 29.8532 114.053 28.4467C112.647 27.0402 110.739 26.25 108.75 26.25ZM35.1562 86.25L11.25 65.7656V54.2344L35.1562 33.75H84.8438L108.75 54.2344V65.7656L84.8438 86.25H35.1562ZM78.75 60C78.75 63.7084 77.6503 67.3335 75.5901 70.4169C73.5298 73.5004 70.6014 75.9036 67.1753 77.3227C63.7492 78.7419 59.9792 79.1132 56.3421 78.3897C52.7049 77.6663 49.364 75.8805 46.7417 73.2583C44.1195 70.636 42.3337 67.2951 41.6103 63.6579C40.8868 60.0208 41.2581 56.2508 42.6773 52.8247C44.0964 49.3986 46.4996 46.4702 49.5831 44.4099C52.6665 42.3497 56.2916 41.25 60 41.25C64.9728 41.25 69.7419 43.2254 73.2583 46.7417C76.7746 50.2581 78.75 55.0272 78.75 60Z" fill="white"/>
</svg>
