<svg width="120" height="120" viewBox="0 0 120 120" fill="none" xmlns="http://www.w3.org/2000/svg">
<g clip-path="url(#clip0_16_1682)">
<path d="M78.55 31.45L52.05 57.95L41.45 47.35C41.0018 46.8266 40.4502 46.4015 39.8298 46.1014C39.2095 45.8013 38.5339 45.6326 37.8453 45.606C37.1567 45.5794 36.47 45.6954 35.8284 45.9468C35.1868 46.1982 34.604 46.5795 34.1167 47.0667C33.6295 47.554 33.2482 48.1368 32.9968 48.7784C32.7454 49.42 32.6294 50.1067 32.656 50.7953C32.6826 51.4839 32.8513 52.1595 33.1514 52.7799C33.4515 53.4002 33.8766 53.9518 34.4 54.4L48.55 68.55C49.4813 69.4737 50.7383 69.9945 52.05 70C52.708 70.0038 53.3603 69.8777 53.9695 69.6289C54.5787 69.38 55.1328 69.0134 55.6 68.55L85.6 38.55C86.0686 38.0852 86.4406 37.5322 86.6945 36.9229C86.9483 36.3136 87.079 35.6601 87.079 35C87.079 34.3399 86.9483 33.6864 86.6945 33.0771C86.4406 32.4678 86.0686 31.9148 85.6 31.45C84.6632 30.5187 83.3959 29.996 82.075 29.996C80.7541 29.996 79.4868 30.5187 78.55 31.45ZM95 10H25C21.0218 10 17.2064 11.5804 14.3934 14.3934C11.5804 17.2064 10 21.0218 10 25V75C10 78.9782 11.5804 82.7936 14.3934 85.6066C17.2064 88.4196 21.0218 90 25 90H82.95L101.45 108.55C101.917 109.013 102.471 109.38 103.08 109.629C103.69 109.878 104.342 110.004 105 110C105.656 110.017 106.307 109.88 106.9 109.6C107.813 109.225 108.595 108.588 109.146 107.769C109.698 106.951 109.995 105.987 110 105V25C110 21.0218 108.42 17.2064 105.607 14.3934C102.794 11.5804 98.9782 10 95 10ZM100 92.95L88.55 81.45C88.0828 80.9866 87.5287 80.62 86.9195 80.3711C86.3103 80.1223 85.658 79.9962 85 80H25C23.6739 80 22.4021 79.4732 21.4645 78.5355C20.5268 77.5979 20 76.3261 20 75V25C20 23.6739 20.5268 22.4021 21.4645 21.4645C22.4021 20.5268 23.6739 20 25 20H95C96.3261 20 97.5979 20.5268 98.5355 21.4645C99.4732 22.4021 100 23.6739 100 25V92.95Z" fill="white"/>
</g>
<defs>
<clipPath id="clip0_16_1682">
<rect width="120" height="120" fill="white"/>
</clipPath>
</defs>
</svg>
