<svg width="163" height="43" viewBox="0 0 163 43" fill="none" xmlns="http://www.w3.org/2000/svg">
<path fill-rule="evenodd" clip-rule="evenodd" d="M20.827 39.0662C26.7787 39.0662 34.7523 37.4372 38.4937 34.7656C42.7169 31.75 40.9002 27.4061 40.9002 22.5775C40.9002 13.4711 26.5676 3.26358 20.827 3.26358C15.0863 3.26358 0.753753 13.4711 0.753753 22.5775C0.753753 27.4061 -1.77992 31.75 2.44327 34.7656C6.18472 37.4372 14.8752 39.0662 20.827 39.0662Z" fill="#219EBC" fill-opacity="0.6"/>
<path d="M12.5826 30.4634C15.5521 30.4634 17.9593 28.0561 17.9593 25.0866C17.9593 22.1172 15.5521 19.7099 12.5826 19.7099C9.61306 19.7099 7.20581 22.1172 7.20581 25.0866C7.20581 28.0561 9.61306 30.4634 12.5826 30.4634Z" fill="white"/>
<path d="M28.3543 30.4634C31.3238 30.4634 33.731 28.0561 33.731 25.0866C33.731 22.1172 31.3238 19.7099 28.3543 19.7099C25.3848 19.7099 22.9775 22.1172 22.9775 25.0866C22.9775 28.0561 25.3848 30.4634 28.3543 30.4634Z" fill="white"/>
<path fill-rule="evenodd" clip-rule="evenodd" d="M15.8876 5.66296L14.6531 3.55456L17.0547 3.59542L18.4096 2.61829L20.3718 3.23339L22.4307 2.5L24.0911 3.06922L26.6432 3.71586L27.5078 2.76955L26.8999 5.1045L24.5549 5.8429L20.2585 6.30531L15.8876 5.66296Z" fill="#219EBC" fill-opacity="0.6"/>
<path d="M12.5825 28.3127C14.3642 28.3127 15.8085 26.8683 15.8085 25.0866C15.8085 23.3049 14.3642 21.8606 12.5825 21.8606C10.8008 21.8606 9.35645 23.3049 9.35645 25.0866C9.35645 26.8683 10.8008 28.3127 12.5825 28.3127Z" fill="#023047"/>
<path fill-rule="evenodd" clip-rule="evenodd" d="M8.63965 36.9155H32.2973L29.4297 40.5C29.4297 40.5 24.9491 39.0662 20.4685 39.0662C15.9879 39.0662 11.5072 40.5 11.5072 40.5L8.63965 36.9155Z" fill="#ED9111"/>
<path d="M28.3545 28.3127C30.1362 28.3127 31.5805 26.8683 31.5805 25.0866C31.5805 23.3049 30.1362 21.8606 28.3545 21.8606C26.5728 21.8606 25.1284 23.3049 25.1284 25.0866C25.1284 26.8683 26.5728 28.3127 28.3545 28.3127Z" fill="#023047"/>
<path fill-rule="evenodd" clip-rule="evenodd" d="M6.54758 33.2176C6.17252 32.0924 6.76038 31.5251 7.90553 31.851C7.90553 31.851 8.49297 32.447 12.3206 32.2556C16.1482 32.0642 20.2065 30.4634 20.2065 30.4634C20.2065 30.4634 24.751 32.0886 28.0924 32.2556C31.4338 32.4227 32.4867 31.8009 32.4867 31.8009C33.6232 31.4582 34.2404 32.0925 33.8654 33.2176L33.1107 35.4817L34.203 37.3932C35.1834 39.109 34.4787 39.9241 32.608 39.2764C32.608 39.2764 27.3755 36.9155 20.2065 36.9155C13.0375 36.9155 7.80496 39.2764 7.80496 39.2764C5.9436 39.9522 5.23346 39.1021 6.20998 37.3932L7.30227 35.4817L6.54758 33.2176Z" fill="#FFAF40" stroke="#ED9111" stroke-width="2.76907" stroke-linecap="round"/>
<path d="M10.0733 16.1254C8.0936 16.1254 6.48877 17.7302 6.48877 19.7099" stroke="#219EBC" stroke-opacity="0.6" stroke-width="2.76907" stroke-linecap="round"/>
<path d="M30.8635 16.1254C32.8432 16.1254 34.448 17.7302 34.448 19.7099" stroke="#219EBC" stroke-opacity="0.6" stroke-width="2.76907" stroke-linecap="round"/>
<line x1="52.7888" y1="0.5" x2="52.7888" y2="42.5" stroke="#023047" stroke-width="3"/>
<path d="M64.8528 34C64.5888 34 64.3728 33.916 64.2048 33.748C64.0368 33.58 63.9528 33.364 63.9528 33.1V9.7C63.9528 9.436 64.0368 9.22 64.2048 9.052C64.3728 8.884 64.5888 8.8 64.8528 8.8H75.5448C77.5368 8.8 79.1688 9.088 80.4408 9.664C81.7128 10.24 82.6488 11.056 83.2488 12.112C83.8728 13.168 84.1848 14.404 84.1848 15.82C84.1848 16.708 84.0168 17.488 83.6808 18.16C83.3688 18.832 82.9728 19.384 82.4928 19.816C82.0368 20.248 81.5928 20.572 81.1608 20.788C82.0968 21.22 82.9128 21.94 83.6088 22.948C84.3288 23.932 84.6888 25.108 84.6888 26.476C84.6888 27.988 84.3528 29.308 83.6808 30.436C83.0088 31.564 82.0128 32.44 80.6928 33.064C79.3728 33.688 77.7648 34 75.8688 34H64.8528ZM69.6768 29.788H75.1848C76.3608 29.788 77.2488 29.464 77.8488 28.816C78.4488 28.144 78.7488 27.352 78.7488 26.44C78.7488 25.504 78.4368 24.724 77.8128 24.1C77.2128 23.452 76.3368 23.128 75.1848 23.128H69.6768V29.788ZM69.6768 18.988H74.8608C75.9888 18.988 76.8288 18.712 77.3808 18.16C77.9568 17.584 78.2448 16.852 78.2448 15.964C78.2448 15.076 77.9568 14.368 77.3808 13.84C76.8288 13.288 75.9888 13.012 74.8608 13.012H69.6768V18.988Z" fill="#023047"/>
<path d="M93.2321 34.32C92.1014 34.32 91.0881 34.1067 90.1921 33.68C89.2961 33.232 88.5814 32.6347 88.0481 31.888C87.5147 31.1413 87.2481 30.3093 87.2481 29.392C87.2481 27.8773 87.8561 26.6827 89.0721 25.808C90.3094 24.9333 91.9307 24.336 93.9361 24.016L98.1281 23.408V22.832C98.1281 22 97.9361 21.36 97.5521 20.912C97.1681 20.464 96.4961 20.24 95.5361 20.24C94.8321 20.24 94.2667 20.3787 93.8401 20.656C93.4134 20.9333 93.0827 21.296 92.8481 21.744C92.6774 22.0213 92.4321 22.16 92.1121 22.16H89.0721C88.8374 22.16 88.6561 22.096 88.5281 21.968C88.4001 21.8187 88.3467 21.648 88.3681 21.456C88.3681 21.0933 88.5067 20.6667 88.7841 20.176C89.0614 19.6853 89.4881 19.2053 90.0641 18.736C90.6401 18.2453 91.3761 17.84 92.2721 17.52C93.1681 17.2 94.2667 17.04 95.5681 17.04C96.9121 17.04 98.0641 17.2 99.0241 17.52C99.9841 17.84 100.752 18.288 101.328 18.864C101.904 19.44 102.331 20.112 102.608 20.88C102.885 21.6267 103.024 22.4373 103.024 23.312V33.2C103.024 33.4347 102.949 33.6267 102.8 33.776C102.651 33.9253 102.459 34 102.224 34H99.0881C98.8747 34 98.6934 33.9253 98.5441 33.776C98.3947 33.6267 98.3201 33.4347 98.3201 33.2V32.016C98.0427 32.4213 97.6694 32.8053 97.2001 33.168C96.7307 33.5093 96.1654 33.7867 95.5041 34C94.8641 34.2133 94.1067 34.32 93.2321 34.32ZM94.5121 30.992C95.2161 30.992 95.8454 30.8427 96.4001 30.544C96.9547 30.2453 97.3921 29.7867 97.7121 29.168C98.0321 28.5493 98.1921 27.7707 98.1921 26.832V26.288L95.2161 26.768C94.0641 26.96 93.2214 27.248 92.6881 27.632C92.1547 28.016 91.8881 28.4853 91.8881 29.04C91.8881 29.4453 92.0054 29.7973 92.2401 30.096C92.4961 30.3947 92.8267 30.6187 93.2321 30.768C93.6374 30.9173 94.0641 30.992 94.5121 30.992ZM107.667 34C107.453 34 107.272 33.9253 107.123 33.776C106.973 33.6267 106.899 33.4347 106.899 33.2V18.16C106.899 17.9253 106.973 17.7333 107.123 17.584C107.272 17.4347 107.453 17.36 107.667 17.36H110.803C111.037 17.36 111.229 17.4347 111.379 17.584C111.528 17.7333 111.603 17.9253 111.603 18.16V19.408C112.157 18.7253 112.872 18.16 113.747 17.712C114.621 17.264 115.688 17.04 116.947 17.04C118.205 17.04 119.304 17.328 120.243 17.904C121.203 18.4587 121.949 19.28 122.483 20.368C123.037 21.4347 123.315 22.736 123.315 24.272V33.2C123.315 33.4347 123.229 33.6267 123.059 33.776C122.909 33.9253 122.728 34 122.515 34H119.123C118.888 34 118.696 33.9253 118.547 33.776C118.397 33.6267 118.323 33.4347 118.323 33.2V24.464C118.323 23.3333 118.045 22.4587 117.491 21.84C116.957 21.2 116.168 20.88 115.123 20.88C114.12 20.88 113.32 21.2 112.723 21.84C112.125 22.4587 111.827 23.3333 111.827 24.464V33.2C111.827 33.4347 111.752 33.6267 111.603 33.776C111.453 33.9253 111.272 34 111.059 34H107.667ZM127.949 34C127.714 34 127.522 33.9253 127.373 33.776C127.223 33.6267 127.149 33.4347 127.149 33.2V12.08C127.149 11.8453 127.223 11.6533 127.373 11.504C127.522 11.3547 127.714 11.28 127.949 11.28H131.085C131.298 11.28 131.479 11.3547 131.629 11.504C131.778 11.6533 131.853 11.8453 131.853 12.08V22.896L136.781 17.904C136.951 17.7547 137.101 17.6267 137.229 17.52C137.378 17.4133 137.602 17.36 137.901 17.36H141.517C141.73 17.36 141.901 17.4347 142.029 17.584C142.157 17.712 142.221 17.872 142.221 18.064C142.221 18.1493 142.199 18.2453 142.157 18.352C142.114 18.4587 142.039 18.544 141.933 18.608L135.757 24.816L142.733 32.784C142.925 32.9547 143.021 33.1253 143.021 33.296C143.021 33.488 142.946 33.6587 142.797 33.808C142.669 33.936 142.509 34 142.317 34H138.605C138.285 34 138.05 33.9467 137.901 33.84C137.773 33.7333 137.623 33.6053 137.453 33.456L131.853 27.184V33.2C131.853 33.4347 131.778 33.6267 131.629 33.776C131.479 33.9253 131.298 34 131.085 34H127.949ZM149.857 34.32C148.726 34.32 147.713 34.1067 146.817 33.68C145.921 33.232 145.206 32.6347 144.673 31.888C144.14 31.1413 143.873 30.3093 143.873 29.392C143.873 27.8773 144.481 26.6827 145.697 25.808C146.934 24.9333 148.556 24.336 150.561 24.016L154.753 23.408V22.832C154.753 22 154.561 21.36 154.177 20.912C153.793 20.464 153.121 20.24 152.161 20.24C151.457 20.24 150.892 20.3787 150.465 20.656C150.038 20.9333 149.708 21.296 149.473 21.744C149.302 22.0213 149.057 22.16 148.737 22.16H145.697C145.462 22.16 145.281 22.096 145.153 21.968C145.025 21.8187 144.972 21.648 144.993 21.456C144.993 21.0933 145.132 20.6667 145.409 20.176C145.686 19.6853 146.113 19.2053 146.689 18.736C147.265 18.2453 148.001 17.84 148.897 17.52C149.793 17.2 150.892 17.04 152.193 17.04C153.537 17.04 154.689 17.2 155.649 17.52C156.609 17.84 157.377 18.288 157.953 18.864C158.529 19.44 158.956 20.112 159.233 20.88C159.51 21.6267 159.649 22.4373 159.649 23.312V33.2C159.649 33.4347 159.574 33.6267 159.425 33.776C159.276 33.9253 159.084 34 158.849 34H155.713C155.5 34 155.318 33.9253 155.169 33.776C155.02 33.6267 154.945 33.4347 154.945 33.2V32.016C154.668 32.4213 154.294 32.8053 153.825 33.168C153.356 33.5093 152.79 33.7867 152.129 34C151.489 34.2133 150.732 34.32 149.857 34.32ZM151.137 30.992C151.841 30.992 152.47 30.8427 153.025 30.544C153.58 30.2453 154.017 29.7867 154.337 29.168C154.657 28.5493 154.817 27.7707 154.817 26.832V26.288L151.841 26.768C150.689 26.96 149.846 27.248 149.313 27.632C148.78 28.016 148.513 28.4853 148.513 29.04C148.513 29.4453 148.63 29.7973 148.865 30.096C149.121 30.3947 149.452 30.6187 149.857 30.768C150.262 30.9173 150.689 30.992 151.137 30.992Z" fill="#ED9111"/>
</svg>
